<?xml version="1.0" encoding="utf-8"?>
<!-- Generator: Adobe Illustrator 22.1.0, SVG Export Plug-In . SVG Version: 6.00 Build 0)  -->
<svg version="1.1" id="Capa_1" xmlns="http://www.w3.org/2000/svg" xmlns:xlink="http://www.w3.org/1999/xlink" x="0px" y="0px"
	 viewBox="0 0 97.8 97.8" style="enable-background:new 0 0 97.8 97.8;" xml:space="preserve">
<g>
	<g>
		<path d="M48.9,0C21.9,0,0,21.9,0,48.9s21.9,48.9,48.9,48.9s48.9-21.9,48.9-48.9S75.9,0,48.9,0z M68.3,75H29.5
			c-3.7,0-6.7-2.7-6.7-6.7V29.5c0-4,3-6.7,6.7-6.7h38.8c3.7,0,6.7,2.7,6.7,6.7v38.8C75,72.3,72,75,68.3,75z M48.7,38.7
			c5.8,0,10.5,4.6,10.5,10.2S54.5,59,48.7,59s-10.5-4.6-10.5-10.2S42.9,38.7,48.7,38.7z M64.9,49.4c0,8.7-7.3,15.7-16.2,15.7
			s-16.2-7-16.2-15.7c0-1.6,0.2-3.1,0.7-4.5h-4.8V67c0,1.1,0.9,2.1,2.1,2.1h36.4c1.1,0,2.1-0.9,2.1-2.1V44.9h-4.6
			C64.7,46.4,64.9,47.9,64.9,49.4z M60.6,39h5.9c1.3,0,2.4-1.1,2.4-2.4V31c0-1.3-1.1-2.4-2.4-2.4h-5.9c-1.3,0-2.4,1.1-2.4,2.4v5.6
			C58.2,37.9,59.3,39,60.6,39z"/>
	</g>
</g>
</svg>
