<?xml version="1.0" encoding="utf-8"?>
<!-- Generator: Adobe Illustrator 22.1.0, SVG Export Plug-In . SVG Version: 6.00 Build 0)  -->
<svg version="1.1" id="Capa_1" xmlns="http://www.w3.org/2000/svg" xmlns:xlink="http://www.w3.org/1999/xlink" x="0px" y="0px"
	 viewBox="0 0 97.8 97.8" style="enable-background:new 0 0 97.8 97.8;" xml:space="preserve">
<g>
	<path d="M48.9,0C21.9,0,0,21.9,0,48.9s21.9,48.9,48.9,48.9s48.9-21.9,48.9-48.9S75.9,0,48.9,0z M52.9,60.4c-3.2,0-6.2-1.7-7.3-3.7
		c0,0-1.7,6.9-2.1,8.2c-1.3,4.7-5.1,9.3-5.4,9.7c-0.2,0.3-0.7,0.2-0.7-0.2c-0.1-0.6-1-6.5,0.1-11.3c0.6-2.4,3.8-16.2,3.8-16.2
		s-0.9-1.9-0.9-4.7c0-4.4,2.6-7.7,5.7-7.7c2.7,0,4,2,4,4.5c0,2.7-1.7,6.8-2.6,10.6c-0.7,3.2,1.6,5.7,4.7,5.7c5.6,0,9.4-7.2,9.4-15.8
		c0-6.5-4.4-11.4-12.4-11.4c-9,0-14.6,6.7-14.6,14.2c0,2.6,0.8,4.4,2,5.8c0.5,0.6,0.6,0.9,0.4,1.7c-0.1,0.5-0.5,1.9-0.6,2.4
		c-0.2,0.8-0.8,1-1.5,0.7c-4.2-1.7-6.1-6.2-6.1-11.4C28.8,33.1,36,23,50.1,23c11.4,0,18.8,8.2,18.8,17
		C68.9,51.7,62.4,60.4,52.9,60.4z"/>
</g>
</svg>
