<?xml version="1.0" encoding="UTF-8" standalone="no"?>
<!-- Generator: Adobe Illustrator 22.1.0, SVG Export Plug-In . SVG Version: 6.00 Build 0)  -->

<svg
   xmlns:dc="http://purl.org/dc/elements/1.1/"
   xmlns:cc="http://creativecommons.org/ns#"
   xmlns:rdf="http://www.w3.org/1999/02/22-rdf-syntax-ns#"
   xmlns:svg="http://www.w3.org/2000/svg"
   xmlns="http://www.w3.org/2000/svg"
   xmlns:sodipodi="http://sodipodi.sourceforge.net/DTD/sodipodi-0.dtd"
   xmlns:inkscape="http://www.inkscape.org/namespaces/inkscape"
   version="1.1"
   id="Capa_1"
   x="0px"
   y="0px"
   viewBox="0 0 97.8 97.8"
   xml:space="preserve"
   sodipodi:docname="instagram.svg"
   width="97.800003"
   height="97.800003"
   inkscape:version="0.92.3 (2405546, 2018-03-11)"><metadata
   id="metadata145"><rdf:RDF><cc:Work
       rdf:about=""><dc:format>image/svg+xml</dc:format><dc:type
         rdf:resource="http://purl.org/dc/dcmitype/StillImage" /></cc:Work></rdf:RDF></metadata><defs
   id="defs143" /><sodipodi:namedview
   pagecolor="#ffffff"
   bordercolor="#666666"
   borderopacity="1"
   objecttolerance="10"
   gridtolerance="10"
   guidetolerance="10"
   inkscape:pageopacity="0"
   inkscape:pageshadow="2"
   inkscape:window-width="3840"
   inkscape:window-height="2066"
   id="namedview141"
   showgrid="false"
   inkscape:zoom="2.4130879"
   inkscape:cx="-61.099998"
   inkscape:cy="48.899998"
   inkscape:window-x="-11"
   inkscape:window-y="-11"
   inkscape:window-maximized="1"
   inkscape:current-layer="Capa_1" />
<style
   type="text/css"
   id="style124">
	.st0{fill:#FFFFFF;}
</style>
<g
   id="g130"
   transform="translate(-110)">
	<g
   id="g128">
		<path
   class="st0"
   d="m 158.9,0 c -27,0 -48.9,21.9 -48.9,48.9 0,27 21.9,48.9 48.9,48.9 27,0 48.9,-21.9 48.9,-48.9 C 207.8,21.9 185.9,0 158.9,0 Z"
   id="path126"
   inkscape:connector-curvature="0"
   style="fill:#ffffff" />
	</g>
</g>
<g
   id="g138"
   transform="translate(-110)">
	<path
   d="m 178.3,23.8 h -38.8 c -3.7,0 -6.7,2.7 -6.7,6.7 v 38.8 c 0,4 3,6.7 6.7,6.7 h 38.8 c 3.7,0 6.7,-2.7 6.7,-6.7 V 30.5 c 0,-4 -3,-6.7 -6.7,-6.7 z M 158.7,60 c -5.8,0 -10.5,-4.6 -10.5,-10.2 0,-5.6 4.7,-10.1 10.5,-10.1 5.8,0 10.5,4.6 10.5,10.2 0,5.6 -4.7,10.1 -10.5,10.1 z"
   id="path132"
   inkscape:connector-curvature="0" />
	<path
   class="st0"
   d="m 174.9,50.4 c 0,8.7 -7.3,15.7 -16.2,15.7 -8.9,0 -16.2,-7 -16.2,-15.7 0,-1.6 0.2,-3.1 0.7,-4.5 h -4.8 V 68 c 0,1.1 0.9,2.1 2.1,2.1 h 36.4 c 1.1,0 2.1,-0.9 2.1,-2.1 V 45.9 h -4.6 c 0.3,1.5 0.5,3 0.5,4.5 z"
   id="path134"
   inkscape:connector-curvature="0"
   style="fill:#ffffff" />
	<path
   class="st0"
   d="m 170.6,40 h 5.9 c 1.3,0 2.4,-1.1 2.4,-2.4 V 32 c 0,-1.3 -1.1,-2.4 -2.4,-2.4 h -5.9 c -1.3,0 -2.4,1.1 -2.4,2.4 v 5.6 c 0,1.3 1.1,2.4 2.4,2.4 z"
   id="path136"
   inkscape:connector-curvature="0"
   style="fill:#ffffff" />
</g>
</svg>