<?xml version="1.0" encoding="UTF-8" standalone="no"?>
<!-- Generator: Adobe Illustrator 22.1.0, SVG Export Plug-In . SVG Version: 6.00 Build 0)  -->

<svg
   xmlns:dc="http://purl.org/dc/elements/1.1/"
   xmlns:cc="http://creativecommons.org/ns#"
   xmlns:rdf="http://www.w3.org/1999/02/22-rdf-syntax-ns#"
   xmlns:svg="http://www.w3.org/2000/svg"
   xmlns="http://www.w3.org/2000/svg"
   xmlns:sodipodi="http://sodipodi.sourceforge.net/DTD/sodipodi-0.dtd"
   xmlns:inkscape="http://www.inkscape.org/namespaces/inkscape"
   version="1.1"
   id="Capa_1"
   x="0px"
   y="0px"
   viewBox="0 0 97.8 97.8"
   xml:space="preserve"
   sodipodi:docname="pinterest.svg"
   width="97.800003"
   height="97.800003"
   inkscape:version="0.92.3 (2405546, 2018-03-11)"><metadata
   id="metadata196"><rdf:RDF><cc:Work
       rdf:about=""><dc:format>image/svg+xml</dc:format><dc:type
         rdf:resource="http://purl.org/dc/dcmitype/StillImage" /></cc:Work></rdf:RDF></metadata><defs
   id="defs194" /><sodipodi:namedview
   pagecolor="#ffffff"
   bordercolor="#666666"
   borderopacity="1"
   objecttolerance="10"
   gridtolerance="10"
   guidetolerance="10"
   inkscape:pageopacity="0"
   inkscape:pageshadow="2"
   inkscape:window-width="3840"
   inkscape:window-height="2066"
   id="namedview192"
   showgrid="false"
   inkscape:zoom="2.4130879"
   inkscape:cx="-66.099998"
   inkscape:cy="48.899998"
   inkscape:window-x="-11"
   inkscape:window-y="-11"
   inkscape:window-maximized="1"
   inkscape:current-layer="Capa_1" />
<style
   type="text/css"
   id="style183">
	.st0{fill:#FFFFFF;}
</style>
<g
   id="g187"
   transform="translate(-115)">
	<path
   class="st0"
   d="m 163.9,0 c -27,0 -48.9,21.9 -48.9,48.9 0,27 21.9,48.9 48.9,48.9 27,0 48.9,-21.9 48.9,-48.9 C 212.8,21.9 190.9,0 163.9,0 Z"
   id="path185"
   inkscape:connector-curvature="0"
   style="fill:#ffffff" />
</g>
<path
   d="m 53,60.4 c -3.2,0 -6.2,-1.7 -7.3,-3.7 0,0 -1.7,6.9 -2.1,8.2 -1.3,4.7 -5.1,9.3 -5.4,9.7 -0.2,0.3 -0.7,0.2 -0.7,-0.2 -0.1,-0.6 -1,-6.5 0.1,-11.3 0.6,-2.4 3.8,-16.2 3.8,-16.2 0,0 -0.9,-1.9 -0.9,-4.7 0,-4.4 2.6,-7.7 5.7,-7.7 2.7,0 4,2 4,4.5 0,2.7 -1.7,6.8 -2.6,10.6 -0.7,3.2 1.6,5.7 4.7,5.7 5.6,0 9.4,-7.2 9.4,-15.8 0,-6.5 -4.4,-11.4 -12.4,-11.4 -9,0 -14.6,6.7 -14.6,14.2 0,2.6 0.8,4.4 2,5.8 0.5,0.6 0.6,0.9 0.4,1.7 -0.1,0.5 -0.5,1.9 -0.6,2.4 -0.2,0.8 -0.8,1 -1.5,0.7 C 30.8,51.2 28.9,46.7 28.9,41.5 28.9,33.1 36.1,23 50.2,23 61.6,23 69,31.2 69,40 69,51.7 62.5,60.4 53,60.4 Z"
   id="path189"
   inkscape:connector-curvature="0" />
</svg>