<?xml version="1.0" encoding="UTF-8" standalone="no"?>
<!-- Created with Inkscape (http://www.inkscape.org/) -->

<svg
   xmlns:dc="http://purl.org/dc/elements/1.1/"
   xmlns:cc="http://creativecommons.org/ns#"
   xmlns:rdf="http://www.w3.org/1999/02/22-rdf-syntax-ns#"
   xmlns:svg="http://www.w3.org/2000/svg"
   xmlns="http://www.w3.org/2000/svg"
   xmlns:sodipodi="http://sodipodi.sourceforge.net/DTD/sodipodi-0.dtd"
   xmlns:inkscape="http://www.inkscape.org/namespaces/inkscape"
   width="136.52499mm"
   height="136.52499mm"
   viewBox="0 0 136.52499 136.52499"
   version="1.1"
   id="svg8"
   inkscape:version="0.92.3 (2405546, 2018-03-11)"
   sodipodi:docname="enlarge_black.svg">
  <defs
     id="defs2" />
  <sodipodi:namedview
     id="base"
     pagecolor="#ffffff"
     bordercolor="#666666"
     borderopacity="1.0"
     inkscape:pageopacity="0.0"
     inkscape:pageshadow="2"
     inkscape:zoom="0.35"
     inkscape:cx="2778"
     inkscape:cy="283.71428"
     inkscape:document-units="mm"
     inkscape:current-layer="layer1"
     showgrid="false"
     inkscape:window-width="3840"
     inkscape:window-height="2066"
     inkscape:window-x="-11"
     inkscape:window-y="-11"
     inkscape:window-maximized="1" />
  <metadata
     id="metadata5">
    <rdf:RDF>
      <cc:Work
         rdf:about="">
        <dc:format>image/svg+xml</dc:format>
        <dc:type
           rdf:resource="http://purl.org/dc/dcmitype/StillImage" />
        <dc:title></dc:title>
      </cc:Work>
    </rdf:RDF>
  </metadata>
  <g
     inkscape:label="Layer 1"
     inkscape:groupmode="layer"
     id="layer1"
     transform="translate(781.88154,-87.374405)">
    <path
       style="fill:none;stroke:#000000;stroke-width:5.29166651;stroke-miterlimit:4;stroke-dasharray:none;stroke-opacity:1"
       id="path20"
       d="m -713.61905,90.020238 c -36.24791,0 -65.61666,29.368752 -65.61666,65.616662 0,36.24792 29.36875,65.61667 65.61666,65.61667 36.24792,0 65.61667,-29.36875 65.61667,-65.61667 0,-36.24791 -29.36875,-65.616662 -65.61667,-65.616662 z m 38.1,73.025002 c 0,1.74625 -1.42875,3.175 -3.175,3.175 h -24.34166 v 24.34166 c 0,1.74625 -1.42875,3.175 -3.175,3.175 h -14.81667 c -1.74625,0 -3.175,-1.42875 -3.175,-3.175 v -24.34166 h -24.34167 c -1.74625,0 -3.175,-1.42875 -3.175,-3.175 v -14.81667 c 0,-1.74625 1.42875,-3.175 3.175,-3.175 h 24.34167 V 120.7119 c 0,-1.74625 1.42875,-3.175 3.175,-3.175 h 14.81667 c 1.74625,0 3.175,1.42875 3.175,3.175 v 24.34167 h 24.34166 c 1.74625,0 3.175,1.42875 3.175,3.175 z"
       inkscape:connector-curvature="0" />
  </g>
</svg>
